HIERARCHY
ROOT Hips
{
	OFFSET 0.00000 0.00000 0.00000
	CHANNELS 6 Xposition Yposition Zposition Zrotation Yrotation Xrotation 
	JOINT LHipJoint
	{
		OFFSET 0 0 0
		CHANNELS 3 Zrotation Yrotation Xrotation
		JOINT LeftUpLeg
		{
			OFFSET 1.74857 -1.85566 0.69197
			CHANNELS 3 Zrotation Yrotation Xrotation
			JOINT LeftLeg
			{
				OFFSET 2.40003 -6.59403 0.00000
				CHANNELS 3 Zrotation Yrotation Xrotation
				JOINT LeftFoot
				{
					OFFSET 2.82169 -7.75254 0.00000
					CHANNELS 3 Zrotation Yrotation Xrotation
					JOINT LeftToeBase
					{
						OFFSET 0.16466 -0.45240 2.26890
						CHANNELS 3 Zrotation Yrotation Xrotation
						End Site
						{
							OFFSET 0.00000 -0.00000 1.16486
						}
					}
				}
			}
		}
	}
	JOINT RHipJoint
	{
		OFFSET 0 0 0
		CHANNELS 3 Zrotation Yrotation Xrotation
		JOINT RightUpLeg
		{
			OFFSET -1.64169 -1.85566 0.69197
			CHANNELS 3 Zrotation Yrotation Xrotation
			JOINT RightLeg
			{
				OFFSET -2.41814 -6.64379 0.00000
				CHANNELS 3 Zrotation Yrotation Xrotation
				JOINT RightFoot
				{
					OFFSET -2.80588 -7.70911 0.00000
					CHANNELS 3 Zrotation Yrotation Xrotation
					JOINT RightToeBase
					{
						OFFSET -0.19098 -0.52472 2.25401
						CHANNELS 3 Zrotation Yrotation Xrotation
						End Site
						{
							OFFSET -0.00000 -0.00000 1.16333
						}
					}
				}
			}
		}
	}
	JOINT LowerBack
	{
		OFFSET 0 0 0
		CHANNELS 3 Zrotation Yrotation Xrotation
		JOINT Spine
		{
			OFFSET -0.02828 2.14690 -0.11061
			CHANNELS 3 Zrotation Yrotation Xrotation
			JOINT Spine1
			{
				OFFSET -0.00167 2.15299 0.00759
				CHANNELS 3 Zrotation Yrotation Xrotation
				JOINT Neck
				{
					OFFSET 0 0 0
					CHANNELS 3 Zrotation Yrotation Xrotation
					JOINT Neck1
					{
						OFFSET -0.09296 1.90118 0.07197
						CHANNELS 3 Zrotation Yrotation Xrotation
						JOINT Head
						{
							OFFSET 0.08490 1.89526 -0.24604
							CHANNELS 3 Zrotation Yrotation Xrotation
							End Site
							{
								OFFSET 0.03186 1.92109 -0.09483
							}
						}
					}
				}
				JOINT LeftShoulder
				{
					OFFSET 0 0 0
					CHANNELS 3 Zrotation Yrotation Xrotation
					JOINT LeftArm
					{
						OFFSET 3.21569 1.44644 -0.03720
						CHANNELS 3 Zrotation Yrotation Xrotation
						JOINT LeftForeArm
						{
							OFFSET 5.47651 -0.00000 -0.00000
							CHANNELS 3 Zrotation Yrotation Xrotation
							JOINT LeftHand
							{
								OFFSET 3.09058 -0.00000 -0.00000
								CHANNELS 3 Zrotation Yrotation Xrotation
								JOINT LeftFingerBase
								{
									OFFSET 0 0 0
									CHANNELS 3 Zrotation Yrotation Xrotation
									JOINT LeftHandIndex1
									{
										OFFSET 0.77161 -0.00000 -0.00000
										CHANNELS 3 Zrotation Yrotation Xrotation
										End Site
										{
											OFFSET 0.62209 -0.00000 -0.00000
										}
									}
								}
								JOINT LThumb
								{
									OFFSET 0 0 0
									CHANNELS 3 Zrotation Yrotation Xrotation
									End Site
									{
										OFFSET 0.63159 -0.00000 0.63159
									}
								}
							}
						}
					}
				}
				JOINT RightShoulder
				{
					OFFSET 0 0 0
					CHANNELS 3 Zrotation Yrotation Xrotation
					JOINT RightArm
					{
						OFFSET -3.38693 1.28904 -0.07093
						CHANNELS 3 Zrotation Yrotation Xrotation
						JOINT RightForeArm
						{
							OFFSET -5.14182 -0.00000 -0.00000
							CHANNELS 3 Zrotation Yrotation Xrotation
							JOINT RightHand
							{
								OFFSET -3.35565 -0.00000 -0.00000
								CHANNELS 3 Zrotation Yrotation Xrotation
								JOINT RightFingerBase
								{
									OFFSET 0 0 0
									CHANNELS 3 Zrotation Yrotation Xrotation
									JOINT RightHandIndex1
									{
										OFFSET -0.80104 -0.00000 -0.00000
										CHANNELS 3 Zrotation Yrotation Xrotation
										End Site
										{
											OFFSET -0.64582 -0.00000 -0.00000
										}
									}
								}
								JOINT RThumb
								{
									OFFSET 0 0 0
									CHANNELS 3 Zrotation Yrotation Xrotation
									End Site
									{
										OFFSET -0.65568 -0.00000 0.65568
									}
								}
							}
						}
					}
				}
			}
		}
	}
}
MOTION
Frames: 9
Frame Time: .0083333
-1.6006 17.0772 -1.1928 7.5682 23.5037 5.7316 0.0000 0.0000 0.0000 -18.8822 -16.2332 -26.3199 4.7584 13.1064 39.7682 0.5488 -5.2925 -13.1944 1.4958 -7.7258 -21.8842 0.0000 0.0000 0.0000 15.9738 -8.4726 -32.7590 -7.6996 -15.8938 51.4734 -2.1915 -12.3342 -34.5892 -0.0130 0.7372 -2.0260 2.1847 5.4967 15.1501 -1.9210 7.6157 8.8891 -4.2172 4.0338 1.5614 -6.5107 -8.6503 6.1402 8.2203 -11.7743 -1.6784 4.0199 -6.0055 -0.6620 -0.0000 0.0000 0.0000 12.7081 -15.1996 -20.0504 113.7874 -57.7501 -80.4449 -0.0000 0.0000 -27.3634 -6.8561 24.4512 -2.8491 -7.1250 0.0000 -0.0000 -35.7876 50.7499 -5.7033 -0.0000 0.0000 0.0000 -14.4319 33.6266 -30.0968 -51.8281 53.7067 -27.6409 0.0000 -0.0000 -16.6223 -0.7279 11.6186 -0.1466 7.1250 -0.0000 -0.0000 18.3186 -18.6483 12.1338
-1.6042 17.0518 -1.2006 7.5408 23.5663 5.5757 0.0000 0.0000 0.0000 -18.8349 -16.3290 -26.4609 4.8653 13.2304 40.2373 0.5613 -5.3266 -13.3446 1.4984 -7.7321 -21.9032 0.0000 0.0000 0.0000 15.9617 -8.5015 -32.8535 -7.8154 -15.9818 51.8949 -2.2236 -12.2984 -34.7408 -0.0139 0.7600 -2.0888 2.3566 5.4965 15.2823 -1.7557 7.6388 8.9364 -4.1531 4.0481 1.5440 -6.5442 -8.7412 6.2623 7.9547 -11.9045 -1.8112 3.9478 -6.0672 -0.7310 -0.0000 0.0000 0.0000 12.8150 -15.0829 -20.4499 113.8980 -57.7280 -80.5384 -0.0000 0.0000 -27.7527 -7.0765 24.4441 -2.9407 -7.1250 0.0000 -0.0000 -35.9753 50.7084 -5.7005 -0.0000 0.0000 0.0000 -14.2104 33.7329 -29.6674 -51.9898 53.7671 -27.7713 0.0000 -0.0000 -16.4419 -0.6476 11.6770 -0.1311 7.1250 -0.0000 -0.0000 18.3664 -18.5945 12.1924
-1.6075 17.0282 -1.2082 7.4779 23.5796 5.4088 0.0000 0.0000 0.0000 -18.7538 -16.4033 -26.6020 4.9730 13.3534 40.7061 0.5718 -5.3852 -13.4700 1.4837 -7.6959 -21.7941 0.0000 0.0000 0.0000 15.9771 -8.4774 -32.9320 -7.9196 -16.0598 52.2726 -2.2460 -12.2868 -34.8554 -0.0142 0.7706 -2.1179 2.5720 5.5228 15.3877 -1.6063 7.7032 9.0134 -4.1290 4.0875 1.5852 -6.4861 -8.8549 6.2398 7.6788 -12.0558 -1.8507 3.8432 -6.1370 -0.7490 -0.0000 0.0000 0.0000 13.0088 -15.0299 -20.9039 113.8962 -57.7284 -80.5369 -0.0000 0.0000 -27.7603 -7.1053 24.4751 -2.9563 -7.1250 0.0000 -0.0000 -36.0214 50.7294 -5.7301 -0.0000 0.0000 0.0000 -14.0333 33.6770 -29.2943 -52.1059 53.8103 -27.8650 0.0000 -0.0000 -16.2578 -0.4770 11.6354 -0.0962 7.1250 -0.0000 -0.0000 18.4851 -18.6369 12.2618
-1.6083 17.0083 -1.2153 7.5904 23.5567 5.3288 0.0000 0.0000 0.0000 -18.8765 -16.4429 -26.7227 5.0727 13.4652 41.1356 0.5868 -5.4038 -13.6451 1.5167 -7.7772 -22.0393 0.0000 0.0000 0.0000 15.8007 -8.4639 -33.0207 -8.0224 -16.1357 52.6433 -2.2615 -12.2450 -34.9108 -0.0163 0.8233 -2.2627 2.6794 5.5861 15.5014 -1.5344 7.8026 9.0720 -4.1329 4.1420 1.6026 -6.3286 -8.9773 6.2749 7.4007 -12.2113 -1.9620 3.7280 -6.2105 -0.8070 0.0000 -0.0000 0.0000 13.3157 -15.0265 -21.3646 113.7997 -57.7477 -80.4553 -0.0000 0.0000 -27.4622 -6.9674 24.3980 -2.8898 -7.1250 0.0000 -0.0000 -35.8490 50.6880 -5.6557 0.0000 -0.0000 0.0000 -13.7207 33.7128 -29.0025 -52.0680 53.7962 -27.8344 0.0000 -0.0000 -15.7921 -0.3105 11.6984 -0.0630 7.1250 -0.0000 -0.0000 18.5900 -18.5801 12.3644
-1.6069 16.9895 -1.2220 7.6565 23.5145 5.2572 0.0000 0.0000 0.0000 -18.9534 -16.4825 -26.8371 5.1626 13.5646 41.5204 0.6041 -5.4097 -13.8432 1.4933 -7.7196 -21.8655 0.0000 0.0000 0.0000 15.6803 -8.4586 -33.1119 -8.1156 -16.2036 52.9780 -2.2632 -12.2367 -34.9140 -0.0225 0.9694 -2.6646 2.7895 5.6520 15.5399 -1.4414 7.9038 9.0838 -4.1113 4.1948 1.6062 -6.1872 -9.0809 6.5071 7.1302 -12.3501 -2.1060 3.6342 -6.2779 -0.9106 0.0000 -0.0000 0.0000 13.6169 -15.0617 -21.7211 113.8962 -57.7284 -80.5369 -0.0000 0.0000 -27.8292 -7.0589 24.4361 -2.9324 -7.1250 0.0000 -0.0000 -35.9546 50.7046 -5.6928 0.0000 -0.0000 0.0000 -13.3484 34.0487 -28.7548 -51.8291 53.7071 -27.6418 0.0000 -0.0000 -15.1647 -0.1256 11.6795 -0.0254 7.1250 -0.0000 -0.0000 18.7157 -18.6011 12.4486
-1.6036 16.9679 -1.2283 7.6838 23.4612 5.1388 0.0000 0.0000 0.0000 -19.0110 -16.5352 -26.8688 5.2396 13.6486 41.8478 0.6204 -5.4127 -14.0288 1.4138 -7.5202 -21.2660 0.0000 0.0000 0.0000 15.5873 -8.4487 -33.1430 -8.1993 -16.2639 53.2773 -2.2870 -12.1531 -34.9851 -0.0204 0.9230 -2.5369 2.8863 5.6843 15.5603 -1.3134 7.9588 9.0956 -4.0387 4.2223 1.6074 -6.1514 -9.1616 6.8129 6.9062 -12.4702 -2.2137 3.5788 -6.3364 -1.0076 -0.0000 0.0000 0.0000 13.8376 -15.0397 -21.9980 114.2515 -57.6567 -80.8372 -0.0000 0.0000 -28.9705 -7.3715 24.6610 -3.0899 -7.1250 0.0000 -0.0000 -36.3798 50.8391 -5.9097 -0.0000 0.0000 0.0000 -12.9951 34.2802 -28.3331 -51.8978 53.7328 -27.6971 0.0000 -0.0000 -14.9314 -0.0440 11.2931 -0.0086 7.1250 -0.0000 -0.0000 18.8127 -18.9682 12.3573
-1.6005 16.9522 -1.2346 7.6822 23.3862 4.9923 0.0000 0.0000 0.0000 -19.0050 -16.6366 -26.8685 5.3082 13.7227 42.1376 0.6315 -5.4560 -14.1549 1.2321 -7.0393 -19.8319 0.0000 0.0000 0.0000 15.5251 -8.4341 -33.1379 -8.2693 -16.3138 53.5268 -2.2982 -12.1166 -35.0207 -0.0204 0.9220 -2.5342 2.9397 5.7061 15.5477 -1.1253 7.9952 9.2023 -3.8673 4.2412 1.7103 -6.1120 -9.2207 6.8648 6.5865 -12.5551 -2.3030 3.4736 -6.3716 -1.0631 -0.0000 0.0000 0.0000 13.9906 -14.9982 -22.4004 114.5080 -57.6041 -81.0538 -0.0000 0.0000 -29.7290 -7.5073 24.9541 -3.1822 -7.1250 0.0000 -0.0000 -36.6998 51.0573 -6.1915 -0.0000 0.0000 0.0000 -12.8347 34.2707 -27.8998 -52.4669 53.9433 -28.1566 0.0000 -0.0000 -15.0165 -0.1031 10.0740 -0.0180 7.1250 -0.0000 -0.0000 18.9125 -20.1212 11.9105
-1.5965 16.9411 -1.2406 7.6493 23.2619 4.8416 0.0000 0.0000 0.0000 -18.9246 -16.7759 -26.8685 5.3707 13.7894 42.4004 0.6332 -5.7226 -14.1813 0.9091 -6.0759 -17.0049 0.0000 0.0000 0.0000 15.4920 -8.3629 -33.1234 -8.3283 -16.3555 53.7369 -2.2686 -12.2761 -34.9713 -0.0274 1.0677 -2.9351 3.0003 5.7326 15.4967 -0.9326 8.0379 9.3480 -3.6881 4.2655 1.8762 -6.0577 -9.2878 6.8689 6.2611 -12.6482 -2.3982 3.3617 -6.4101 -1.1130 0.0000 -0.0000 0.0000 14.2223 -14.9518 -22.8749 114.3598 -57.6346 -80.9287 -0.0000 0.0000 -29.6156 -7.4878 24.9622 -3.1748 -7.1250 0.0000 -0.0000 -36.6884 51.0671 -6.1987 0.0000 -0.0000 0.0000 -12.7220 34.3404 -27.6708 -52.2447 53.8616 -27.9770 0.0000 -0.0000 -15.0657 -0.2414 11.2689 -0.0472 7.1250 -0.0000 -0.0000 18.6827 -18.9882 12.2530
-1.5900 16.9252 -1.2482 7.7499 23.1324 4.8053 0.0000 0.0000 0.0000 -19.0293 -16.8776 -26.9135 5.4330 13.8554 42.6614 0.6467 -5.7335 -14.3311 0.8118 -5.7498 -16.0603 0.0000 0.0000 0.0000 15.3024 -8.2909 -33.1982 -8.3909 -16.3994 53.9588 -2.2640 -12.2697 -34.9416 -0.0284 1.0876 -2.9898 3.0243 5.7526 15.4510 -0.8468 8.0669 9.4391 -3.6031 4.2827 1.9908 -5.9419 -9.3814 6.8295 5.9459 -12.7716 -2.3710 3.2351 -6.4642 -1.1170 0.0000 -0.0000 0.0000 14.6044 -14.9244 -23.3498 114.0206 -57.7034 -80.6421 -0.0000 0.0000 -29.1577 -7.2874 24.7791 -3.0680 -7.1250 0.0000 -0.0000 -36.3872 50.9498 -6.0198 0.0000 -0.0000 0.0000 -12.4411 34.4728 -27.3394 -52.2474 53.8626 -27.9792 0.0000 -0.0000 -15.1848 -0.4577 11.4772 -0.0911 7.1250 -0.0000 -0.0000 18.5149 -18.7873 12.2181
